<?xml version="1.0" encoding="UTF-8"?>
<svg version="1.1" xmlns="http://www.w3.org/2000/svg" width="100" height="50">
<path d="M0 0 C0.66 0.226875 1.32 0.45375 2 0.6875 C4.05925139 1.41132467 4.05925139 1.41132467 6 1.6875 C6.66 1.0275 7.32 0.3675 8 -0.3125 C10.34360915 -0.06139902 12.67968195 0.27315749 15 0.6875 C17.25771236 0.7340201 17.25771236 0.7340201 20.4921875 0.1953125 C25.37592293 -0.42865911 30.20752362 -0.45961758 35.125 -0.4375 C36.42630859 -0.44330078 36.42630859 -0.44330078 37.75390625 -0.44921875 C42.28329798 -0.4423247 46.54313943 -0.23309743 51 0.6875 C51 1.3475 51 2.0075 51 2.6875 C51.99 2.0275 52.98 1.3675 54 0.6875 C57.5772533 0.23082937 59.33458305 0.24972569 62.375 2.25 C64.6085569 5.60033535 64.49398209 7.7356433 64 11.6875 C62.875 14.125 62.875 14.125 61 15.6875 C58.125 16.3125 58.125 16.3125 55 15.6875 C53.33333333 13.6875 51.66666667 11.6875 50 9.6875 C46.78839304 9.18484308 46.78839304 9.18484308 44 9.6875 C44.495 12.1625 44.495 12.1625 45 14.6875 C43.35 15.0175 41.7 15.3475 40 15.6875 C40.33 12.3875 40.66 9.0875 41 5.6875 C38.525 5.1925 38.525 5.1925 36 4.6875 C36.66 8.3175 37.32 11.9475 38 15.6875 C35.69 15.6875 33.38 15.6875 31 15.6875 C30.875 9.0625 30.875 9.0625 32 5.6875 C30.35 6.6775 28.7 7.6675 27 8.6875 C27.99 9.3475 28.98 10.0075 30 10.6875 C30.1875 13.3125 30.1875 13.3125 30 15.6875 C29.01 16.0175 28.02 16.3475 27 16.6875 C26.01 16.0275 25.02 15.3675 24 14.6875 C23.67 15.0175 23.34 15.3475 23 15.6875 C21.00041636 15.72830783 18.99954746 15.73004356 17 15.6875 C16.67 15.0275 16.34 14.3675 16 13.6875 C15.34 14.3475 14.68 15.0075 14 15.6875 C11.125 16.1875 11.125 16.1875 8 15.6875 C7.38125 14.6975 6.7625 13.7075 6.125 12.6875 C4.40250892 9.52539931 4.40250892 9.52539931 1.9765625 9.2890625 C-0.50880989 9.28218414 -0.50880989 9.28218414 -4 9.6875 C-4 11.3375 -4 12.9875 -4 14.6875 C-4.66 14.6875 -5.32 14.6875 -6 14.6875 C-6 10.3975 -6 6.1075 -6 1.6875 C-2 -0.3125 -2 -0.3125 0 0 Z M17 3.6875 C18 5.6875 18 5.6875 18 5.6875 Z M-3 6.6875 C-2.67 7.3475 -2.34 8.0075 -2 8.6875 C-0.68 7.3675 0.64 6.0475 2 4.6875 C-0.32357511 4.50259993 -0.32357511 4.50259993 -3 6.6875 Z M45 4.6875 C45 5.3475 45 6.0075 45 6.6875 C45.99 6.3575 46.98 6.0275 48 5.6875 C47.01 5.3575 46.02 5.0275 45 4.6875 Z M59 4.6875 C56.26513223 6.42537565 56.26513223 6.42537565 54 8.6875 C54 9.3475 54 10.0075 54 10.6875 C57.37503669 9.5016763 59.64722731 8.41176311 62 5.6875 C61.01 5.3575 60.02 5.0275 59 4.6875 Z M13 4.6875 C10.03 7.1625 10.03 7.1625 7 9.6875 C7.33 10.3475 7.66 11.0075 8 11.6875 C9.98 10.3675 11.96 9.0475 14 7.6875 C13.67 6.6975 13.34 5.7075 13 4.6875 Z M22 11.6875 C23 13.6875 23 13.6875 23 13.6875 Z " fill="#979797" transform="translate(8,17.3125)"/>
<path d="M0 0 C0.66 0.226875 1.32 0.45375 2 0.6875 C4.05925139 1.41132467 4.05925139 1.41132467 6 1.6875 C6.66 1.0275 7.32 0.3675 8 -0.3125 C11.625 0.0625 11.625 0.0625 15 0.6875 C15 1.6775 15 2.6675 15 3.6875 C14.34 3.6875 13.68 3.6875 13 3.6875 C13 4.3475 13 5.0075 13 5.6875 C11.70766393 7.06060707 10.37562854 8.39784824 9 9.6875 C11.64 8.3675 14.28 7.0475 17 5.6875 C16.25 13.4375 16.25 13.4375 14 15.6875 C11.125 16.1875 11.125 16.1875 8 15.6875 C7.38125 14.6975 6.7625 13.7075 6.125 12.6875 C4.40250892 9.52539931 4.40250892 9.52539931 1.9765625 9.2890625 C-0.50880989 9.28218414 -0.50880989 9.28218414 -4 9.6875 C-4 11.3375 -4 12.9875 -4 14.6875 C-4.66 14.6875 -5.32 14.6875 -6 14.6875 C-6 10.3975 -6 6.1075 -6 1.6875 C-2 -0.3125 -2 -0.3125 0 0 Z M-3 6.6875 C-2.67 7.3475 -2.34 8.0075 -2 8.6875 C-0.68 7.3675 0.64 6.0475 2 4.6875 C-0.32357511 4.50259993 -0.32357511 4.50259993 -3 6.6875 Z " fill="#DDDDDD" transform="translate(8,17.3125)"/>
<path d="M0 0 C3.1330814 2.80896953 3.74288345 5.88613522 4 10 C3.03394425 12.74954328 2.61984486 13.69007757 0 15 C-5.23934426 15.44590164 -5.23934426 15.44590164 -7.8125 13.9375 C-9.61262685 11.00045094 -9.8206098 8.40841388 -10 5 C-8.21327007 -0.22274903 -5.23548913 -0.53423359 0 0 Z M-7 8 C-7 8.66 -7 9.32 -7 10 C-4.21788056 9.62403791 -2.4120716 9.32681541 -0.1875 7.5625 C1.20169442 6.06170257 1.20169442 6.06170257 1 4 C-2.33755092 4 -4.39597531 6.0752861 -7 8 Z " fill="#BEBEBE" transform="translate(96,18)"/>
<path d="M0 0 C1.65 0 3.3 0 5 0 C5.28571429 7.42857143 5.28571429 7.42857143 3 11 C6.465 10.505 6.465 10.505 10 10 C10 6.7 10 3.4 10 0 C11.32 0 12.64 0 14 0 C14 4.95 14 9.9 14 15 C9.38 15 4.76 15 0 15 C0 10.05 0 5.1 0 0 Z " fill="#8F8F8F" transform="translate(72,18)"/>
<path d="M0 0 C3.57075009 -0.54337501 5.33544906 -0.43720456 8.375 1.5625 C10.6085569 4.91283535 10.49398209 7.0481433 10 11 C8.875 13.4375 8.875 13.4375 7 15 C4 15.4375 4 15.4375 1 15 C-0.875 13.5 -0.875 13.5 -2 12 C-1.67 11.34 -1.34 10.68 -1 10 C-0.01 10.33 0.98 10.66 2 11 C2 10.34 2 9.68 2 9 C3.65 8.34 5.3 7.68 7 7 C7 6.34 7 5.68 7 5 C3.9168649 6.19899698 0.93720508 7.47700477 -2 9 C-2.25 3.375 -2.25 3.375 0 0 Z " fill="#BABABA" transform="translate(62,18)"/>
<path d="M0 0 C2 2 2 2 2.23046875 4.3125 C2.21628906 5.199375 2.20210937 6.08625 2.1875 7 C2.18105469 7.886875 2.17460937 8.77375 2.16796875 9.6875 C2 12 2 12 1 14 C1.99 14 2.98 14 4 14 C3.7525 13.0925 3.505 12.185 3.25 11.25 C3 8 3 8 4.9375 5.625 C5.618125 5.08875 6.29875 4.5525 7 4 C7.99 4.33 8.98 4.66 10 5 C8.02 5.99 8.02 5.99 6 7 C9.465 8.485 9.465 8.485 13 10 C13 11.65 13 13.3 13 15 C12.01 15.33 11.02 15.66 10 16 C9.01 15.34 8.02 14.68 7 14 C6.67 14.33 6.34 14.66 6 15 C4.00041636 15.04080783 1.99954746 15.04254356 0 15 C-0.33 12.03 -0.66 9.06 -1 6 C-1.99 6.495 -1.99 6.495 -3 7 C-3.33 5.68 -3.66 4.36 -4 3 C-3.34 3 -2.68 3 -2 3 C-1.67 2.34 -1.34 1.68 -1 1 C-0.67 0.67 -0.34 0.34 0 0 Z M0 3 C1 5 1 5 1 5 Z M5 11 C6 13 6 13 6 13 Z " fill="#2E2E2E" transform="translate(25,18)"/>
<path d="M0 0 C0.99 0.66 1.98 1.32 3 2 C3.1875 5.125 3.1875 5.125 3 8 C1.35 8.66 -0.3 9.32 -2 10 C-2 9.34 -2 8.68 -2 8 C-1.01 7.34 -0.02 6.68 1 6 C-0.32 6.33 -1.64 6.66 -3 7 C-3.59732819 9.76264289 -4 12.16032769 -4 15 C-4.99 15 -5.98 15 -7 15 C-7 10.38 -7 5.76 -7 1 C-4.47454232 -0.26272884 -2.80127043 -0.20497101 0 0 Z " fill="#DFDFDF" transform="translate(33,17)"/>
<path d="M0 0 C-0.75 7.75 -0.75 7.75 -3 10 C-6 10.25 -6 10.25 -9 10 C-11 8 -11 8 -11.125 5.375 C-11.08375 4.59125 -11.0425 3.8075 -11 3 C-9.68 2.34 -8.36 1.68 -7 1 C-7.33 1.99 -7.66 2.98 -8 4 C-6.2984375 3.01 -6.2984375 3.01 -4.5625 2 C-1.125 0 -1.125 0 0 0 Z " fill="#B7B7B7" transform="translate(25,23)"/>
<path d="M0 0 C0.33 0.66 0.66 1.32 1 2 C1.66 2.33 2.32 2.66 3 3 C2.979375 3.78375 2.95875 4.5675 2.9375 5.375 C2.81315937 7.98114961 2.81315937 7.98114961 4 10 C4.66 10.33 5.32 10.66 6 11 C3.625 11.125 3.625 11.125 1 11 C0.34 10.34 -0.32 9.68 -1 9 C-3.58354218 8.83312552 -3.58354218 8.83312552 -6 9 C-5.67 10.65 -5.34 12.3 -5 14 C-6.65 14.33 -8.3 14.66 -10 15 C-9.67 13.68 -9.34 12.36 -9 11 C-8.67 11.66 -8.34 12.32 -8 13 C-7.34 10.03 -6.68 7.06 -6 4 C-5.67 4.66 -5.34 5.32 -5 6 C-4.34 5.34 -3.68 4.68 -3 4 C-2.01 4 -1.02 4 0 4 C0 2.68 0 1.36 0 0 Z " fill="#686868" transform="translate(58,18)"/>
<path d="M0 0 C0.33 0.99 0.66 1.98 1 3 C0.34 3 -0.32 3 -1 3 C-1 3.66 -1 4.32 -1 5 C-3.31 6.32 -5.62 7.64 -8 9 C-8.33 8.67 -8.66 8.34 -9 8 C-8.6875 4.5 -8.6875 4.5 -8 1 C-5.29120665 -0.35439668 -2.99066732 -0.06501451 0 0 Z " fill="#DADADA" transform="translate(96,18)"/>
<path d="M0 0 C3.07921132 -0.25660094 5.21136993 -0.39431504 8 1 C8 1.66 8 2.32 8 3 C6.06640625 4.5078125 6.06640625 4.5078125 3.5625 6.125 C2.73878906 6.66382813 1.91507813 7.20265625 1.06640625 7.7578125 C-1 9 -1 9 -2 9 C-2.25 3.375 -2.25 3.375 0 0 Z " fill="#DFDFDF" transform="translate(62,18)"/>
<path d="M0 0 C0 1.32 0 2.64 0 4 C-1.98 4 -3.96 4 -6 4 C-6.04898438 4.63808594 -6.09796875 5.27617187 -6.1484375 5.93359375 C-6.22320312 6.75988281 -6.29796875 7.58617187 -6.375 8.4375 C-6.47941406 9.67306641 -6.47941406 9.67306641 -6.5859375 10.93359375 C-6.72257812 11.61550781 -6.85921875 12.29742187 -7 13 C-7.99 13.495 -7.99 13.495 -9 14 C-9 9.38 -9 4.76 -9 0 C-5.93109813 -1.53445094 -3.29905734 -0.54984289 0 0 Z " fill="#DDDDDD" transform="translate(58,18)"/>
<path d="M0 0 C0 0.66 0 1.32 0 2 C0.66 2 1.32 2 2 2 C2.33 3.98 2.66 5.96 3 8 C0.69 8 -1.62 8 -4 8 C-4 5.69 -4 3.38 -4 1 C-2 0 -2 0 0 0 Z " fill="#ADADAD" transform="translate(43,25)"/>
<path d="M0 0 C0.721875 0.103125 1.44375 0.20625 2.1875 0.3125 C2.1875 1.3025 2.1875 2.2925 2.1875 3.3125 C1.5275 3.3125 0.8675 3.3125 0.1875 3.3125 C0.1875 3.9725 0.1875 4.6325 0.1875 5.3125 C-0.76125 5.745625 -1.71 6.17875 -2.6875 6.625 C-6.01291937 8.10552201 -6.01291937 8.10552201 -7.8125 11.3125 C-8.28433746 7.25469787 -8.14579645 5.75054676 -5.625 2.4375 C-2.8125 0.3125 -2.8125 0.3125 0 0 Z " fill="#DFDFDF" transform="translate(20.8125,17.6875)"/>
<path d="M0 0 C1.32 0 2.64 0 4 0 C3.67 4.62 3.34 9.24 3 14 C2.01 14 1.02 14 0 14 C0 9.38 0 4.76 0 0 Z " fill="#E3E3E3" transform="translate(82,18)"/>
<path d="M0 0 C1.98 0 3.96 0 6 0 C6 1.65 6 3.3 6 5 C5.01 5.33 4.02 5.66 3 6 C2.01 5.34 1.02 4.68 0 4 C0 2.68 0 1.36 0 0 Z " fill="#A4A4A4" transform="translate(32,28)"/>
<path d="M0 0 C0.99 0.33 1.98 0.66 3 1 C1.02 1.99 1.02 1.99 -1 3 C0.98 3.66 2.96 4.32 5 5 C5 5.33 5 5.66 5 6 C3.35 6 1.7 6 0 6 C-0.33 6.99 -0.66 7.98 -1 9 C-1.33 8.01 -1.66 7.02 -2 6 C-2.99 6.495 -2.99 6.495 -4 7 C-3.6875 4.625 -3.6875 4.625 -3 2 C-2.01 1.34 -1.02 0.68 0 0 Z " fill="#616161" transform="translate(32,22)"/>
<path d="M0 0 C1.2065625 0.0309375 1.2065625 0.0309375 2.4375 0.0625 C1.65375 0.68125 0.87 1.3 0.0625 1.9375 C-3.08542704 4.48582189 -4.86435524 6.42361837 -6.5625 10.0625 C-7.91689668 7.35370665 -7.62751451 5.05316732 -7.5625 2.0625 C-6.923125 1.918125 -6.28375 1.77375 -5.625 1.625 C-2.92258807 0.88797856 -2.9576555 0.07213794 0 0 Z " fill="#676767" transform="translate(18.5625,16.9375)"/>
<path d="M0 0 C2.64 0.33 5.28 0.66 8 1 C8 1.99 8 2.98 8 4 C5.36 4 2.72 4 0 4 C0 2.68 0 1.36 0 0 Z " fill="#FAFAFA" transform="translate(73,28)"/>
<path d="M0 0 C0.391875 0.66 0.78375 1.32 1.1875 2 C2.85416667 4.29166667 2.85416667 4.29166667 5.6875 4.25 C6.8321875 4.12625 6.8321875 4.12625 8 4 C6.64002141 6.71995718 4.65937518 7.67031241 2 9 C0.14223235 5.86501708 -0.20140476 3.62528568 0 0 Z " fill="#787878" transform="translate(86,23)"/>
<path d="M0 0 C0.66 0.33 1.32 0.66 2 1 C1.979375 1.78375 1.95875 2.5675 1.9375 3.375 C1.81315937 5.98114961 1.81315937 5.98114961 3 8 C3.66 8.33 4.32 8.66 5 9 C3.35 9 1.7 9 0 9 C-1.125 6.75 -1.125 6.75 -2 4 C-1.125 1.6875 -1.125 1.6875 0 0 Z " fill="#393939" transform="translate(59,20)"/>
<path d="M0 0 C0.66 0.66 1.32 1.32 2 2 C1.625 4.125 1.625 4.125 1 6 C0.34 6 -0.32 6 -1 6 C-1.99 6.495 -1.99 6.495 -3 7 C-3.33 5.68 -3.66 4.36 -4 3 C-3.34 3 -2.68 3 -2 3 C-1.67 2.34 -1.34 1.68 -1 1 C-0.67 0.67 -0.34 0.34 0 0 Z " fill="#4D4D4D" transform="translate(25,18)"/>
<path d="M0 0 C0.33 0.66 0.66 1.32 1 2 C3.02463255 2.65213292 3.02463255 2.65213292 5 3 C3.68 3 2.36 3 1 3 C1 4.65 1 6.3 1 8 C0.34 8 -0.32 8 -1 8 C-1.04241723 5.66705225 -1.04092937 3.33297433 -1 1 C-0.67 0.67 -0.34 0.34 0 0 Z " fill="#F2F2F2" transform="translate(3,24)"/>
<path d="M0 0 C0.99 0 1.98 0 3 0 C2.67 1.65 2.34 3.3 2 5 C1.01 5.33 0.02 5.66 -1 6 C-1.66 5.34 -2.32 4.68 -3 4 C-2.505 3.525625 -2.01 3.05125 -1.5 2.5625 C0.11542197 1.24076302 0.11542197 1.24076302 0 0 Z " fill="#CDCDCD" transform="translate(9,21)"/>
<path d="M0 0 C1.65 0 3.3 0 5 0 C5 1.32 5 2.64 5 4 C3.35 3.67 1.7 3.34 0 3 C0 2.01 0 1.02 0 0 Z " fill="#F7F7F7" transform="translate(53,18)"/>
<path d="M0 0 C0.33 0 0.66 0 1 0 C1 1.65 1 3.3 1 5 C0.34 5 -0.32 5 -1 5 C-1 6.32 -1 7.64 -1 9 C-2.32 8.34 -3.64 7.68 -5 7 C-3 5 -3 5 0 4 C0 2.68 0 1.36 0 0 Z " fill="#9F9F9F" transform="translate(58,18)"/>
</svg>
