<?xml version="1.0" encoding="UTF-8"?>
<svg version="1.1" xmlns="http://www.w3.org/2000/svg" width="99" height="56">
<path d="M0 0 C7.88403517 -0.06886734 15.76702676 -0.12860499 23.65112305 -0.16479492 C26.33319554 -0.17818702 29.01505492 -0.19906077 31.69702148 -0.22631836 C35.55198251 -0.26270611 39.40661733 -0.279728 43.26171875 -0.29296875 C45.06040657 -0.31619453 45.06040657 -0.31619453 46.89543152 -0.33988953 C48.01621597 -0.34011612 49.13700043 -0.34034271 50.29174805 -0.34057617 C51.27547897 -0.34723801 52.2592099 -0.35389984 53.27275085 -0.36076355 C56.46314096 0.0612648 58.3726911 1.18730108 61 3 C61.33 2.01 61.66 1.02 62 0 C66.24994263 -0.05805933 70.49978324 -0.09361654 74.75 -0.125 C75.9565625 -0.14175781 77.163125 -0.15851562 78.40625 -0.17578125 C79.56640625 -0.18222656 80.7265625 -0.18867188 81.921875 -0.1953125 C82.99018555 -0.20578613 84.05849609 -0.21625977 85.15917969 -0.22705078 C88.01067361 0.00085308 89.61808801 0.45729135 92 2 C94.13089163 5.08471931 94.29727938 7.80646231 94.3125 11.5 C94.32925781 12.4384375 94.34601563 13.376875 94.36328125 14.34375 C93.94768059 17.38255053 93.01958576 18.74062173 91 21 C91.495 21.763125 91.99 22.52625 92.5 23.3125 C94 26 94 26 94 29 C73.21 29 52.42 29 31 29 C31 26.69 31 24.38 31 22 C28.47933197 23.22851628 28.47933197 23.22851628 26 25 C25.67 26.32 25.34 27.64 25 29 C16.75 29 8.5 29 0 29 C0 19.43 0 9.86 0 0 Z M61 11 C60.67 11.99 60.34 12.98 60 14 C60.66 14 61.32 14 62 14 C61.67 13.01 61.34 12.02 61 11 Z M32 15 C32.33 15.66 32.66 16.32 33 17 C33.33 16.34 33.66 15.68 34 15 C33.34 15 32.68 15 32 15 Z " fill="#EDEDED" transform="translate(2,15)"/>
<path d="M0 0 C4.393125 -0.061875 8.78625 -0.12375 13.3125 -0.1875 C15.38591675 -0.22846802 15.38591675 -0.22846802 17.5012207 -0.27026367 C18.59007568 -0.27775635 19.67893066 -0.28524902 20.80078125 -0.29296875 C21.91622314 -0.3086792 23.03166504 -0.32438965 24.1809082 -0.34057617 C27 0 27 0 28.82495117 1.39331055 C31.06488442 4.45605742 31.18957081 6.61831896 31.25 10.375 C31.27578125 11.33148438 31.3015625 12.28796875 31.328125 13.2734375 C30.95439914 16.37892147 30.06626291 17.70536066 28 20 C28.66 20.99 29.32 21.98 30 23 C30 24.32 30 25.64 30 27 C20.1 27 10.2 27 0 27 C0 18.09 0 9.18 0 0 Z " fill="#FCFCFC" transform="translate(65,16)"/>
<path d="M0 0 C4.43728151 -0.11586755 8.87417591 -0.18714058 13.3125 -0.25 C14.57513672 -0.28351562 15.83777344 -0.31703125 17.13867188 -0.3515625 C18.95141602 -0.37089844 18.95141602 -0.37089844 20.80078125 -0.390625 C21.91622314 -0.41157227 23.03166504 -0.43251953 24.1809082 -0.45410156 C27 0 27 0 28.8828125 1.890625 C30.76594996 5.44619922 29.70937805 8.13066521 29 12 C28.01 12.33 27.02 12.66 26 13 C26.99 13.33 27.98 13.66 29 14 C29.33 18.29 29.66 22.58 30 27 C20.1 27 10.2 27 0 27 C0 18 0 9 0 0 Z " fill="#FDFDFD" transform="translate(34,16)"/>
</svg>
