<?xml version="1.0" encoding="UTF-8"?>
<svg xmlns="http://www.w3.org/2000/svg" xmlns:xlink="http://www.w3.org/1999/xlink" width="200px" height="113px" viewBox="0 0 200 113" version="1.1">
<g id="surface1">
<path style=" stroke:none;fill-rule:nonzero;fill:rgb(97.254902%,97.254902%,97.254902%);fill-opacity:1;" d="M 163.15625 32.1875 C 164.886719 32.1875 166.617188 32.183594 168.34375 32.175781 C 169.703125 32.175781 171.066406 32.171875 172.425781 32.171875 C 173.066406 32.171875 173.703125 32.171875 174.34375 32.167969 C 175.222656 32.167969 176.101562 32.167969 176.984375 32.167969 C 177.238281 32.167969 177.492188 32.167969 177.753906 32.164062 C 180.597656 32.179688 184.089844 32.714844 186.28125 34.671875 C 186.445312 34.863281 186.613281 35.058594 186.785156 35.257812 C 187.046875 35.398438 187.308594 35.542969 187.574219 35.6875 C 188.441406 36.261719 188.539062 36.714844 188.890625 37.667969 C 189.1875 37.765625 189.484375 37.867188 189.789062 37.96875 C 190.25 38.703125 190.25 38.703125 190.710938 39.644531 C 190.863281 39.949219 191.015625 40.253906 191.171875 40.566406 C 192.183594 43.015625 192.296875 45.25 192.3125 47.875 C 192.316406 48.246094 192.320312 48.617188 192.324219 49 C 192.332031 49.789062 192.335938 50.574219 192.335938 51.363281 C 192.34375 52.550781 192.359375 53.738281 192.378906 54.925781 C 192.421875 60.132812 192.242188 64.9375 188.605469 69.003906 C 186.628906 70.941406 184.566406 71.945312 181.980469 72.921875 C 182.316406 73.035156 182.652344 73.144531 182.996094 73.261719 C 184.558594 73.847656 186.042969 74.640625 187.386719 75.632812 C 187.386719 75.832031 187.386719 76.03125 187.386719 76.238281 C 187.585938 76.238281 187.785156 76.238281 187.988281 76.238281 C 190.757812 79.511719 192.191406 82.457031 192.191406 86.785156 C 172.074219 86.785156 151.957031 86.785156 131.230469 86.785156 C 131.230469 68.886719 131.230469 50.984375 131.230469 32.542969 C 141.878906 32.359375 152.511719 32.1875 163.15625 32.1875 Z M 163.15625 32.1875 "/>
<path style=" stroke:none;fill-rule:nonzero;fill:rgb(97.647059%,97.647059%,97.647059%);fill-opacity:1;" d="M 68.167969 32.242188 C 79.960938 32.195312 79.960938 32.195312 84.921875 32.183594 C 88.339844 32.175781 91.757812 32.167969 95.175781 32.152344 C 97.667969 32.140625 100.15625 32.132812 102.644531 32.128906 C 103.964844 32.128906 105.28125 32.125 106.597656 32.113281 C 107.839844 32.105469 109.082031 32.105469 110.324219 32.105469 C 110.777344 32.105469 111.230469 32.105469 111.683594 32.097656 C 116.375 32.054688 120.773438 32.804688 124.332031 36.125 C 127.3125 39.351562 128.390625 42.5625 128.300781 46.917969 C 128.070312 50.03125 127.09375 53.382812 124.757812 55.558594 C 124.515625 55.71875 124.273438 55.882812 124.023438 56.046875 C 123.808594 56.289062 123.589844 56.53125 123.367188 56.78125 C 122.523438 57.554688 122.523438 57.554688 119.519531 59.0625 C 122.394531 59.160156 125.265625 59.261719 128.226562 59.363281 C 128.226562 68.410156 128.226562 77.460938 128.226562 86.785156 C 108.410156 86.785156 88.589844 86.785156 68.167969 86.785156 C 68.167969 67.214844 68.167969 67.214844 71.859375 63.148438 C 73.265625 61.859375 74.953125 60.941406 76.578125 59.964844 C 72.414062 59.816406 72.414062 59.816406 68.167969 59.664062 C 68.167969 50.613281 68.167969 41.566406 68.167969 32.242188 Z M 68.167969 32.242188 "/>
<path style=" stroke:none;fill-rule:nonzero;fill:rgb(97.647059%,97.647059%,97.647059%);fill-opacity:1;" d="M 47.273438 32.222656 C 49.445312 32.226562 51.617188 32.226562 53.789062 32.226562 C 57.980469 32.230469 62.171875 32.238281 66.367188 32.242188 C 66.367188 38.804688 66.367188 45.367188 66.367188 52.128906 C 61.90625 52.128906 57.449219 52.128906 52.851562 52.128906 C 52.851562 52.429688 52.851562 52.726562 52.851562 53.035156 C 57.3125 53.132812 61.773438 53.234375 66.367188 53.335938 C 66.367188 59.898438 66.367188 66.460938 66.367188 73.222656 C 64.433594 73.523438 64.433594 73.523438 62.460938 73.828125 C 61.339844 74.238281 61.339844 74.238281 60.453125 74.769531 C 58.894531 75.632812 58.894531 75.632812 58.257812 75.632812 C 58.257812 75.832031 58.257812 76.03125 58.257812 76.238281 C 57.664062 76.746094 57.0625 77.246094 56.457031 77.742188 C 56.355469 77.941406 56.257812 78.140625 56.15625 78.347656 C 55.957031 78.347656 55.757812 78.347656 55.554688 78.347656 C 55.472656 78.558594 55.390625 78.773438 55.304688 78.992188 C 55.074219 79.558594 54.832031 80.121094 54.578125 80.675781 C 54.449219 80.964844 54.320312 81.25 54.183594 81.546875 C 54.054688 81.832031 53.925781 82.117188 53.789062 82.40625 C 53.300781 83.8125 53.300781 83.8125 53.152344 86.785156 C 37.496094 86.785156 21.835938 86.785156 5.707031 86.785156 C 5.707031 68.886719 5.707031 50.984375 5.707031 32.542969 C 19.566406 32.355469 33.414062 32.199219 47.273438 32.222656 Z M 47.273438 32.222656 "/>
<path style=" stroke:none;fill-rule:nonzero;fill:rgb(38.431373%,38.431373%,38.431373%);fill-opacity:1;" d="M 74.472656 61.171875 C 74.671875 61.269531 74.871094 61.371094 75.074219 61.472656 C 74.199219 62.378906 73.304688 63.207031 72.335938 64.015625 C 71.339844 64.875 70.753906 65.648438 70.269531 66.894531 C 70.070312 66.894531 69.875 66.894531 69.667969 66.894531 C 70.578125 64.371094 72.242188 62.585938 74.472656 61.171875 Z M 74.472656 61.171875 "/>
</g>
</svg>
