<?xml version="1.0" encoding="UTF-8"?>
<svg xmlns="http://www.w3.org/2000/svg" xmlns:xlink="http://www.w3.org/1999/xlink" width="150px" height="84px" viewBox="0 0 149 84" version="1.1">
<g id="surface1">
<path style=" stroke:none;fill-rule:nonzero;fill:rgb(97.254902%,97.254902%,97.254902%);fill-opacity:1;" d="M 121.550781 23.925781 C 122.839844 23.925781 124.128906 23.921875 125.417969 23.917969 C 126.429688 23.917969 127.445312 23.917969 128.457031 23.917969 C 128.933594 23.917969 129.410156 23.914062 129.886719 23.914062 C 130.539062 23.910156 131.195312 23.914062 131.851562 23.914062 C 132.042969 23.914062 132.230469 23.910156 132.425781 23.910156 C 134.546875 23.921875 137.148438 24.316406 138.777344 25.773438 C 138.902344 25.917969 139.027344 26.058594 139.15625 26.207031 C 139.351562 26.3125 139.542969 26.421875 139.742188 26.53125 C 140.386719 26.953125 140.460938 27.292969 140.722656 28 C 140.945312 28.074219 141.164062 28.148438 141.394531 28.222656 C 141.738281 28.769531 141.738281 28.769531 142.078125 29.46875 C 142.191406 29.695312 142.304688 29.921875 142.421875 30.15625 C 143.175781 31.976562 143.261719 33.636719 143.273438 35.585938 C 143.277344 35.863281 143.277344 36.140625 143.28125 36.425781 C 143.285156 37.011719 143.289062 37.597656 143.289062 38.179688 C 143.296875 39.0625 143.308594 39.945312 143.324219 40.832031 C 143.355469 44.703125 143.222656 48.273438 140.511719 51.292969 C 139.039062 52.734375 137.503906 53.480469 135.578125 54.207031 C 135.824219 54.292969 136.074219 54.375 136.332031 54.460938 C 137.496094 54.894531 138.601562 55.484375 139.605469 56.222656 C 139.605469 56.371094 139.605469 56.519531 139.605469 56.671875 C 139.75 56.671875 139.898438 56.671875 140.050781 56.671875 C 142.117188 59.105469 143.183594 61.296875 143.183594 64.511719 C 128.195312 64.511719 113.207031 64.511719 97.765625 64.511719 C 97.765625 51.207031 97.765625 37.902344 97.765625 24.191406 C 105.699219 24.054688 113.621094 23.925781 121.550781 23.925781 Z M 121.550781 23.925781 "/>
<path style=" stroke:none;fill-rule:nonzero;fill:rgb(97.647059%,97.647059%,97.647059%);fill-opacity:1;" d="M 50.785156 23.96875 C 59.570312 23.933594 59.570312 23.933594 63.265625 23.925781 C 65.8125 23.917969 68.359375 23.914062 70.90625 23.902344 C 72.761719 23.890625 74.617188 23.886719 76.472656 23.882812 C 77.453125 23.882812 78.433594 23.878906 79.414062 23.875 C 80.339844 23.867188 81.265625 23.867188 82.191406 23.867188 C 82.53125 23.867188 82.867188 23.863281 83.203125 23.859375 C 86.699219 23.828125 89.976562 24.386719 92.625 26.851562 C 94.847656 29.25 95.648438 31.640625 95.585938 34.878906 C 95.414062 37.191406 94.6875 39.683594 92.941406 41.300781 C 92.761719 41.421875 92.582031 41.539062 92.398438 41.664062 C 92.238281 41.84375 92.074219 42.023438 91.910156 42.210938 C 91.277344 42.785156 91.277344 42.785156 89.042969 43.902344 C 91.183594 43.976562 93.324219 44.050781 95.53125 44.128906 C 95.53125 50.855469 95.53125 57.582031 95.53125 64.511719 C 80.765625 64.511719 66 64.511719 50.785156 64.511719 C 50.785156 49.964844 50.785156 49.964844 53.535156 46.941406 C 54.582031 45.984375 55.839844 45.300781 57.050781 44.574219 C 53.949219 44.464844 53.949219 44.464844 50.785156 44.351562 C 50.785156 37.625 50.785156 30.898438 50.785156 23.96875 Z M 50.785156 23.96875 "/>
<path style=" stroke:none;fill-rule:nonzero;fill:rgb(97.647059%,97.647059%,97.647059%);fill-opacity:1;" d="M 35.21875 23.953125 C 36.835938 23.957031 38.453125 23.957031 40.070312 23.957031 C 43.195312 23.960938 46.320312 23.964844 49.441406 23.96875 C 49.441406 28.847656 49.441406 33.726562 49.441406 38.753906 C 46.121094 38.753906 42.796875 38.753906 39.375 38.753906 C 39.375 38.972656 39.375 39.195312 39.375 39.425781 C 42.699219 39.496094 46.019531 39.570312 49.441406 39.648438 C 49.441406 44.527344 49.441406 49.40625 49.441406 54.433594 C 48.003906 54.652344 48.003906 54.652344 46.535156 54.878906 C 45.699219 55.1875 45.699219 55.1875 45.039062 55.578125 C 43.875 56.222656 43.875 56.222656 43.402344 56.222656 C 43.402344 56.371094 43.402344 56.519531 43.402344 56.671875 C 42.957031 57.050781 42.511719 57.421875 42.058594 57.792969 C 41.984375 57.941406 41.914062 58.085938 41.835938 58.238281 C 41.6875 58.238281 41.542969 58.238281 41.390625 58.238281 C 41.328125 58.398438 41.265625 58.558594 41.199219 58.722656 C 41.03125 59.140625 40.851562 59.558594 40.660156 59.972656 C 40.5625 60.183594 40.46875 60.398438 40.367188 60.621094 C 40.269531 60.832031 40.171875 61.042969 40.074219 61.257812 C 39.710938 62.304688 39.710938 62.304688 39.597656 64.511719 C 27.933594 64.511719 16.269531 64.511719 4.25 64.511719 C 4.25 51.207031 4.25 37.902344 4.25 24.191406 C 14.578125 24.050781 24.890625 23.9375 35.21875 23.953125 Z M 35.21875 23.953125 "/>
<path style=" stroke:none;fill-rule:nonzero;fill:rgb(38.431373%,38.431373%,38.431373%);fill-opacity:1;" d="M 55.484375 45.472656 C 55.632812 45.546875 55.777344 45.621094 55.929688 45.695312 C 55.277344 46.371094 54.609375 46.984375 53.890625 47.585938 C 53.148438 48.222656 52.710938 48.800781 52.351562 49.726562 C 52.203125 49.726562 52.054688 49.726562 51.902344 49.726562 C 52.578125 47.851562 53.820312 46.527344 55.484375 45.472656 Z M 55.484375 45.472656 "/>
</g>
</svg>
