<?xml version="1.0" encoding="UTF-8"?>
<svg xmlns="http://www.w3.org/2000/svg" xmlns:xlink="http://www.w3.org/1999/xlink" width="80px" height="45px" viewBox="0 0 79 45" version="1.1">
<g id="surface1">
<path style=" stroke:none;fill-rule:nonzero;fill:rgb(97.254902%,97.254902%,97.254902%);fill-opacity:1;" d="M 64.445312 12.816406 C 65.128906 12.816406 65.8125 12.816406 66.496094 12.8125 C 67.035156 12.8125 67.570312 12.8125 68.109375 12.8125 C 68.359375 12.8125 68.613281 12.8125 68.867188 12.8125 C 69.214844 12.808594 69.558594 12.808594 69.90625 12.8125 C 70.007812 12.808594 70.109375 12.808594 70.214844 12.808594 C 71.335938 12.816406 72.714844 13.027344 73.582031 13.808594 C 73.648438 13.882812 73.710938 13.960938 73.78125 14.039062 C 73.882812 14.097656 73.984375 14.152344 74.09375 14.210938 C 74.433594 14.441406 74.472656 14.621094 74.609375 15 C 74.730469 15.039062 74.847656 15.078125 74.96875 15.121094 C 75.148438 15.414062 75.148438 15.414062 75.332031 15.789062 C 75.390625 15.910156 75.449219 16.03125 75.511719 16.15625 C 75.914062 17.128906 75.957031 18.019531 75.964844 19.066406 C 75.964844 19.210938 75.96875 19.359375 75.96875 19.515625 C 75.96875 19.828125 75.972656 20.140625 75.972656 20.453125 C 75.976562 20.925781 75.984375 21.398438 75.988281 21.875 C 76.007812 23.945312 75.9375 25.859375 74.5 27.480469 C 73.71875 28.25 72.902344 28.652344 71.882812 29.039062 C 72.015625 29.085938 72.148438 29.128906 72.285156 29.175781 C 72.898438 29.410156 73.488281 29.726562 74.019531 30.121094 C 74.019531 30.199219 74.019531 30.277344 74.019531 30.359375 C 74.097656 30.359375 74.175781 30.359375 74.253906 30.359375 C 75.351562 31.664062 75.914062 32.835938 75.914062 34.558594 C 67.96875 34.558594 60.023438 34.558594 51.835938 34.558594 C 51.835938 27.433594 51.835938 20.304688 51.835938 12.960938 C 56.042969 12.886719 60.242188 12.816406 64.445312 12.816406 Z M 64.445312 12.816406 "/>
<path style=" stroke:none;fill-rule:nonzero;fill:rgb(97.647059%,97.647059%,97.647059%);fill-opacity:1;" d="M 26.925781 12.839844 C 31.585938 12.820312 31.585938 12.820312 33.542969 12.816406 C 34.894531 12.8125 36.246094 12.808594 37.59375 12.804688 C 38.578125 12.800781 39.5625 12.796875 40.546875 12.792969 C 41.066406 12.792969 41.585938 12.792969 42.105469 12.789062 C 42.597656 12.785156 43.085938 12.785156 43.578125 12.785156 C 43.757812 12.785156 43.9375 12.785156 44.117188 12.78125 C 45.96875 12.765625 47.707031 13.0625 49.109375 14.386719 C 50.289062 15.671875 50.714844 16.949219 50.679688 18.683594 C 50.589844 19.921875 50.203125 21.257812 49.277344 22.125 C 49.183594 22.1875 49.085938 22.253906 48.988281 22.320312 C 48.902344 22.417969 48.816406 22.511719 48.730469 22.613281 C 48.394531 22.921875 48.394531 22.921875 47.210938 23.519531 C 48.34375 23.558594 49.480469 23.597656 50.648438 23.640625 C 50.648438 27.242188 50.648438 30.847656 50.648438 34.558594 C 42.820312 34.558594 34.992188 34.558594 26.925781 34.558594 C 26.925781 26.765625 26.925781 26.765625 28.386719 25.148438 C 28.9375 24.632812 29.605469 24.269531 30.246094 23.878906 C 28.605469 23.820312 28.605469 23.820312 26.925781 23.761719 C 26.925781 20.15625 26.925781 16.554688 26.925781 12.839844 Z M 26.925781 12.839844 "/>
<path style=" stroke:none;fill-rule:nonzero;fill:rgb(97.647059%,97.647059%,97.647059%);fill-opacity:1;" d="M 18.671875 12.832031 C 19.53125 12.832031 20.386719 12.832031 21.246094 12.835938 C 22.902344 12.835938 24.558594 12.835938 26.214844 12.839844 C 26.214844 15.453125 26.214844 18.066406 26.214844 20.761719 C 24.453125 20.761719 22.691406 20.761719 20.875 20.761719 C 20.875 20.878906 20.875 20.996094 20.875 21.121094 C 22.636719 21.160156 24.398438 21.199219 26.214844 21.238281 C 26.214844 23.855469 26.214844 26.46875 26.214844 29.160156 C 25.453125 29.277344 25.453125 29.277344 24.671875 29.398438 C 24.230469 29.566406 24.230469 29.566406 23.878906 29.773438 C 23.261719 30.121094 23.261719 30.121094 23.011719 30.121094 C 23.011719 30.199219 23.011719 30.277344 23.011719 30.359375 C 22.777344 30.5625 22.539062 30.761719 22.300781 30.960938 C 22.261719 31.039062 22.222656 31.117188 22.183594 31.199219 C 22.101562 31.199219 22.023438 31.199219 21.945312 31.199219 C 21.910156 31.285156 21.878906 31.371094 21.84375 31.457031 C 21.753906 31.683594 21.660156 31.90625 21.558594 32.128906 C 21.507812 32.242188 21.457031 32.355469 21.402344 32.476562 C 21.351562 32.589844 21.300781 32.699219 21.246094 32.816406 C 21.054688 33.375 21.054688 33.375 20.996094 34.558594 C 14.8125 34.558594 8.625 34.558594 2.253906 34.558594 C 2.253906 27.433594 2.253906 20.304688 2.253906 12.960938 C 7.730469 12.886719 13.199219 12.824219 18.671875 12.832031 Z M 18.671875 12.832031 "/>
<path style=" stroke:none;fill-rule:nonzero;fill:rgb(38.431373%,38.431373%,38.431373%);fill-opacity:1;" d="M 29.417969 24.359375 C 29.496094 24.398438 29.574219 24.4375 29.65625 24.480469 C 29.308594 24.839844 28.953125 25.171875 28.570312 25.492188 C 28.179688 25.835938 27.949219 26.144531 27.757812 26.640625 C 27.679688 26.640625 27.601562 26.640625 27.519531 26.640625 C 27.878906 25.636719 28.535156 24.925781 29.417969 24.359375 Z M 29.417969 24.359375 "/>
</g>
</svg>
