<?xml version="1.0" encoding="UTF-8"?>
<svg xmlns="http://www.w3.org/2000/svg" xmlns:xlink="http://www.w3.org/1999/xlink" width="50px" height="28px" viewBox="0 0 49 28" version="1.1">
<g id="surface1">
<path style=" stroke:none;fill-rule:nonzero;fill:rgb(97.254902%,97.254902%,97.254902%);fill-opacity:1;" d="M 39.972656 7.976562 C 40.398438 7.976562 40.820312 7.972656 41.246094 7.972656 C 41.578125 7.972656 41.910156 7.972656 42.246094 7.972656 C 42.402344 7.972656 42.558594 7.972656 42.714844 7.972656 C 42.929688 7.96875 43.144531 7.972656 43.359375 7.972656 C 43.421875 7.972656 43.484375 7.96875 43.550781 7.96875 C 44.246094 7.972656 45.101562 8.105469 45.636719 8.589844 C 45.679688 8.640625 45.71875 8.6875 45.761719 8.734375 C 45.828125 8.769531 45.890625 8.808594 45.957031 8.84375 C 46.167969 8.984375 46.191406 9.097656 46.277344 9.332031 C 46.351562 9.359375 46.421875 9.382812 46.5 9.40625 C 46.613281 9.589844 46.613281 9.589844 46.722656 9.824219 C 46.761719 9.898438 46.796875 9.972656 46.835938 10.050781 C 47.085938 10.660156 47.113281 11.210938 47.117188 11.863281 C 47.117188 11.953125 47.117188 12.046875 47.121094 12.140625 C 47.121094 12.335938 47.121094 12.53125 47.121094 12.726562 C 47.125 13.019531 47.128906 13.316406 47.132812 13.609375 C 47.144531 14.902344 47.101562 16.089844 46.207031 17.097656 C 45.722656 17.578125 45.21875 17.828125 44.585938 18.070312 C 44.667969 18.097656 44.75 18.125 44.832031 18.152344 C 45.214844 18.296875 45.582031 18.496094 45.910156 18.742188 C 45.910156 18.789062 45.910156 18.839844 45.910156 18.890625 C 45.957031 18.890625 46.007812 18.890625 46.058594 18.890625 C 46.734375 19.703125 47.085938 20.433594 47.085938 21.503906 C 42.160156 21.503906 37.230469 21.503906 32.152344 21.503906 C 32.152344 17.070312 32.152344 12.632812 32.152344 8.0625 C 34.761719 8.019531 37.363281 7.976562 39.972656 7.976562 Z M 39.972656 7.976562 "/>
<path style=" stroke:none;fill-rule:nonzero;fill:rgb(97.647059%,97.647059%,97.647059%);fill-opacity:1;" d="M 16.703125 7.988281 C 19.589844 7.976562 19.589844 7.976562 20.804688 7.976562 C 21.644531 7.972656 22.480469 7.972656 23.316406 7.96875 C 23.929688 7.964844 24.539062 7.960938 25.148438 7.960938 C 25.472656 7.960938 25.792969 7.960938 26.117188 7.957031 C 26.421875 7.957031 26.726562 7.957031 27.03125 7.957031 C 27.140625 7.957031 27.25 7.953125 27.363281 7.953125 C 28.511719 7.941406 29.589844 8.128906 30.460938 8.949219 C 31.191406 9.75 31.457031 10.546875 31.433594 11.625 C 31.378906 12.398438 31.136719 13.226562 30.566406 13.765625 C 30.507812 13.808594 30.445312 13.847656 30.386719 13.886719 C 30.332031 13.949219 30.28125 14.007812 30.226562 14.070312 C 30.019531 14.261719 30.019531 14.261719 29.28125 14.632812 C 29.988281 14.660156 30.691406 14.683594 31.414062 14.710938 C 31.414062 16.953125 31.414062 19.195312 31.414062 21.503906 C 26.558594 21.503906 21.703125 21.503906 16.703125 21.503906 C 16.703125 16.65625 16.703125 16.65625 17.605469 15.648438 C 17.949219 15.328125 18.363281 15.101562 18.761719 14.859375 C 17.742188 14.820312 17.742188 14.820312 16.703125 14.785156 C 16.703125 12.542969 16.703125 10.300781 16.703125 7.988281 Z M 16.703125 7.988281 "/>
<path style=" stroke:none;fill-rule:nonzero;fill:rgb(97.647059%,97.647059%,97.647059%);fill-opacity:1;" d="M 11.582031 7.984375 C 12.113281 7.984375 12.644531 7.984375 13.179688 7.984375 C 14.207031 7.988281 15.234375 7.988281 16.257812 7.988281 C 16.257812 9.617188 16.257812 11.242188 16.257812 12.917969 C 15.167969 12.917969 14.074219 12.917969 12.949219 12.917969 C 12.949219 12.992188 12.949219 13.066406 12.949219 13.140625 C 14.042969 13.164062 15.132812 13.191406 16.257812 13.214844 C 16.257812 14.84375 16.257812 16.46875 16.257812 18.144531 C 15.785156 18.21875 15.785156 18.21875 15.304688 18.292969 C 15.027344 18.394531 15.027344 18.394531 14.8125 18.527344 C 14.429688 18.742188 14.429688 18.742188 14.273438 18.742188 C 14.273438 18.789062 14.273438 18.839844 14.273438 18.890625 C 14.128906 19.015625 13.980469 19.140625 13.832031 19.265625 C 13.808594 19.3125 13.785156 19.363281 13.757812 19.414062 C 13.710938 19.414062 13.660156 19.414062 13.609375 19.414062 C 13.589844 19.464844 13.570312 19.519531 13.550781 19.574219 C 13.492188 19.714844 13.433594 19.851562 13.371094 19.992188 C 13.339844 20.0625 13.308594 20.132812 13.277344 20.207031 C 13.242188 20.277344 13.210938 20.347656 13.179688 20.417969 C 13.058594 20.769531 13.058594 20.769531 13.023438 21.503906 C 9.1875 21.503906 5.351562 21.503906 1.398438 21.503906 C 1.398438 17.070312 1.398438 12.632812 1.398438 8.0625 C 4.792969 8.015625 8.1875 7.980469 11.582031 7.984375 Z M 11.582031 7.984375 "/>
<path style=" stroke:none;fill-rule:nonzero;fill:rgb(38.431373%,38.431373%,38.431373%);fill-opacity:1;" d="M 18.246094 15.15625 C 18.292969 15.183594 18.34375 15.207031 18.394531 15.230469 C 18.179688 15.457031 17.960938 15.660156 17.722656 15.863281 C 17.476562 16.074219 17.335938 16.265625 17.214844 16.574219 C 17.167969 16.574219 17.117188 16.574219 17.070312 16.574219 C 17.292969 15.949219 17.699219 15.507812 18.246094 15.15625 Z M 18.246094 15.15625 "/>
</g>
</svg>
