<?xml version="1.0" encoding="UTF-8"?>
<svg xmlns="http://www.w3.org/2000/svg" xmlns:xlink="http://www.w3.org/1999/xlink" width="10px" height="6px" viewBox="0 0 10 6" version="1.1">
<g id="surface1">
<path style=" stroke:none;fill-rule:nonzero;fill:rgb(97.254902%,97.254902%,97.254902%);fill-opacity:1;" d="M 8.15625 1.710938 C 8.246094 1.710938 8.332031 1.707031 8.417969 1.707031 C 8.484375 1.707031 8.554688 1.707031 8.621094 1.707031 C 8.652344 1.707031 8.683594 1.707031 8.71875 1.707031 C 8.761719 1.707031 8.804688 1.707031 8.847656 1.707031 C 8.863281 1.707031 8.875 1.707031 8.886719 1.707031 C 9.03125 1.707031 9.203125 1.738281 9.3125 1.839844 C 9.324219 1.851562 9.332031 1.863281 9.339844 1.871094 C 9.351562 1.878906 9.367188 1.886719 9.378906 1.894531 C 9.421875 1.925781 9.425781 1.949219 9.445312 2 C 9.460938 2.003906 9.472656 2.011719 9.488281 2.015625 C 9.511719 2.054688 9.511719 2.054688 9.535156 2.105469 C 9.542969 2.121094 9.550781 2.136719 9.558594 2.152344 C 9.609375 2.285156 9.613281 2.402344 9.617188 2.542969 C 9.617188 2.5625 9.617188 2.582031 9.617188 2.601562 C 9.617188 2.644531 9.617188 2.683594 9.617188 2.726562 C 9.617188 2.789062 9.617188 2.851562 9.617188 2.917969 C 9.621094 3.191406 9.613281 3.449219 9.429688 3.664062 C 9.332031 3.765625 9.226562 3.820312 9.097656 3.871094 C 9.117188 3.878906 9.132812 3.882812 9.148438 3.890625 C 9.226562 3.921875 9.300781 3.964844 9.371094 4.015625 C 9.371094 4.027344 9.371094 4.039062 9.371094 4.046875 C 9.378906 4.046875 9.390625 4.046875 9.398438 4.046875 C 9.539062 4.222656 9.609375 4.378906 9.609375 4.609375 C 8.605469 4.609375 7.597656 4.609375 6.5625 4.609375 C 6.5625 3.65625 6.5625 2.707031 6.5625 1.726562 C 7.09375 1.71875 7.625 1.710938 8.15625 1.710938 Z M 8.15625 1.710938 "/>
<path style=" stroke:none;fill-rule:nonzero;fill:rgb(97.647059%,97.647059%,97.647059%);fill-opacity:1;" d="M 3.410156 1.710938 C 3.996094 1.710938 3.996094 1.710938 4.246094 1.707031 C 4.417969 1.707031 4.585938 1.707031 4.757812 1.707031 C 4.882812 1.707031 5.007812 1.707031 5.132812 1.707031 C 5.199219 1.707031 5.265625 1.707031 5.328125 1.707031 C 5.390625 1.703125 5.453125 1.703125 5.515625 1.703125 C 5.539062 1.703125 5.5625 1.703125 5.585938 1.703125 C 5.820312 1.703125 6.039062 1.742188 6.214844 1.917969 C 6.367188 2.089844 6.417969 2.261719 6.414062 2.492188 C 6.402344 2.65625 6.355469 2.835938 6.238281 2.949219 C 6.226562 2.957031 6.214844 2.96875 6.203125 2.976562 C 6.191406 2.988281 6.179688 3 6.167969 3.015625 C 6.125 3.054688 6.125 3.054688 5.976562 3.136719 C 6.121094 3.140625 6.261719 3.148438 6.410156 3.152344 C 6.410156 3.632812 6.410156 4.113281 6.410156 4.609375 C 5.421875 4.609375 4.429688 4.609375 3.410156 4.609375 C 3.410156 3.570312 3.410156 3.570312 3.59375 3.351562 C 3.664062 3.285156 3.746094 3.234375 3.828125 3.183594 C 3.621094 3.175781 3.621094 3.175781 3.410156 3.167969 C 3.410156 2.6875 3.410156 2.207031 3.410156 1.710938 Z M 3.410156 1.710938 "/>
<path style=" stroke:none;fill-rule:nonzero;fill:rgb(97.647059%,97.647059%,97.647059%);fill-opacity:1;" d="M 2.363281 1.710938 C 2.472656 1.710938 2.582031 1.710938 2.6875 1.710938 C 2.898438 1.710938 3.109375 1.710938 3.316406 1.710938 C 3.316406 2.058594 3.316406 2.410156 3.316406 2.769531 C 3.09375 2.769531 2.871094 2.769531 2.644531 2.769531 C 2.644531 2.785156 2.644531 2.800781 2.644531 2.816406 C 2.867188 2.820312 3.089844 2.828125 3.316406 2.832031 C 3.316406 3.179688 3.316406 3.527344 3.316406 3.886719 C 3.222656 3.902344 3.222656 3.902344 3.125 3.921875 C 3.066406 3.941406 3.066406 3.941406 3.023438 3.96875 C 2.945312 4.015625 2.945312 4.015625 2.914062 4.015625 C 2.914062 4.027344 2.914062 4.039062 2.914062 4.046875 C 2.882812 4.074219 2.851562 4.101562 2.824219 4.128906 C 2.816406 4.136719 2.8125 4.148438 2.808594 4.160156 C 2.796875 4.160156 2.789062 4.160156 2.777344 4.160156 C 2.773438 4.171875 2.769531 4.183594 2.765625 4.195312 C 2.753906 4.222656 2.742188 4.253906 2.730469 4.285156 C 2.722656 4.300781 2.714844 4.3125 2.710938 4.328125 C 2.703125 4.34375 2.695312 4.359375 2.691406 4.375 C 2.664062 4.449219 2.664062 4.449219 2.65625 4.609375 C 1.875 4.609375 1.09375 4.609375 0.285156 4.609375 C 0.285156 3.65625 0.285156 2.707031 0.285156 1.726562 C 0.976562 1.71875 1.671875 1.710938 2.363281 1.710938 Z M 2.363281 1.710938 "/>
<path style=" stroke:none;fill-rule:nonzero;fill:rgb(38.431373%,38.431373%,38.431373%);fill-opacity:1;" d="M 3.722656 3.246094 C 3.734375 3.253906 3.742188 3.257812 3.753906 3.265625 C 3.710938 3.3125 3.664062 3.355469 3.617188 3.398438 C 3.566406 3.445312 3.539062 3.484375 3.511719 3.550781 C 3.503906 3.550781 3.492188 3.550781 3.484375 3.550781 C 3.527344 3.417969 3.613281 3.324219 3.722656 3.246094 Z M 3.722656 3.246094 "/>
</g>
</svg>
