<?xml version="1.0" encoding="UTF-8"?>
<svg xmlns="http://www.w3.org/2000/svg" xmlns:xlink="http://www.w3.org/1999/xlink" width="132px" height="24px" viewBox="0 0 132 24" version="1.1">
<g id="surface1">
<path style=" stroke:none;fill-rule:nonzero;fill:rgb(98.823529%,98.823529%,98.823529%);fill-opacity:1;" d="M 86.722656 2.367188 C 89.105469 2.355469 91.488281 2.347656 93.871094 2.34375 C 94.980469 2.339844 96.085938 2.335938 97.191406 2.332031 C 98.15625 2.328125 99.121094 2.324219 100.085938 2.324219 C 100.597656 2.324219 101.109375 2.320312 101.617188 2.320312 C 102.101562 2.316406 102.582031 2.316406 103.0625 2.316406 C 103.238281 2.316406 103.414062 2.3125 103.589844 2.3125 C 105.257812 2.296875 106.632812 2.578125 107.898438 3.71875 C 108.160156 4 108.375 4.289062 108.574219 4.621094 C 108.617188 4.6875 108.65625 4.757812 108.703125 4.828125 C 109.300781 5.910156 109.414062 7.097656 109.410156 8.308594 C 109.410156 8.441406 109.410156 8.574219 109.414062 8.710938 C 109.414062 8.988281 109.414062 9.265625 109.410156 9.542969 C 109.410156 9.964844 109.414062 10.382812 109.417969 10.804688 C 109.417969 11.078125 109.417969 11.347656 109.417969 11.621094 C 109.417969 11.742188 109.421875 11.867188 109.421875 11.996094 C 109.40625 13.558594 108.890625 14.953125 107.855469 16.125 C 107.203125 16.753906 106.34375 17.09375 105.53125 17.464844 C 105.605469 17.492188 105.679688 17.519531 105.753906 17.546875 C 107.191406 18.097656 108.304688 18.964844 108.953125 20.398438 C 109.0625 20.695312 109.160156 20.992188 109.25 21.296875 C 109.269531 21.367188 109.292969 21.433594 109.316406 21.507812 C 109.382812 21.851562 109.363281 22.1875 109.363281 22.535156 C 106.410156 22.539062 103.460938 22.539062 100.511719 22.542969 C 99.144531 22.542969 97.773438 22.542969 96.402344 22.542969 C 95.210938 22.542969 94.019531 22.546875 92.824219 22.546875 C 92.191406 22.546875 91.558594 22.546875 90.929688 22.546875 C 90.332031 22.546875 89.738281 22.546875 89.144531 22.546875 C 88.925781 22.546875 88.707031 22.546875 88.488281 22.546875 C 88.191406 22.550781 87.894531 22.550781 87.597656 22.546875 C 87.507812 22.550781 87.421875 22.550781 87.332031 22.550781 C 86.738281 22.546875 86.738281 22.546875 86.609375 22.421875 C 86.601562 22.167969 86.597656 21.914062 86.597656 21.65625 C 86.597656 21.578125 86.597656 21.496094 86.597656 21.414062 C 86.59375 21.140625 86.597656 20.867188 86.597656 20.59375 C 86.597656 20.398438 86.597656 20.203125 86.597656 20.007812 C 86.59375 19.476562 86.59375 18.945312 86.597656 18.414062 C 86.597656 17.859375 86.597656 17.304688 86.59375 16.75 C 86.59375 15.816406 86.59375 14.886719 86.597656 13.953125 C 86.597656 12.875 86.597656 11.796875 86.597656 10.71875 C 86.59375 9.792969 86.59375 8.867188 86.597656 7.941406 C 86.597656 7.390625 86.597656 6.835938 86.59375 6.285156 C 86.59375 5.765625 86.59375 5.246094 86.597656 4.726562 C 86.597656 4.535156 86.597656 4.34375 86.597656 4.152344 C 86.59375 3.890625 86.597656 3.632812 86.597656 3.371094 C 86.597656 3.226562 86.597656 3.078125 86.597656 2.929688 C 86.609375 2.589844 86.609375 2.589844 86.722656 2.367188 Z M 86.722656 2.367188 "/>
<path style=" stroke:none;fill-rule:nonzero;fill:rgb(98.431373%,98.431373%,98.431373%);fill-opacity:1;" d="M 48.09375 2.367188 C 50.445312 2.355469 52.800781 2.347656 55.152344 2.34375 C 56.246094 2.339844 57.339844 2.335938 58.433594 2.332031 C 59.386719 2.328125 60.339844 2.324219 61.292969 2.324219 C 61.796875 2.324219 62.300781 2.320312 62.804688 2.320312 C 63.28125 2.316406 63.753906 2.316406 64.230469 2.316406 C 64.40625 2.316406 64.578125 2.3125 64.75 2.3125 C 66.550781 2.296875 67.917969 2.667969 69.25 3.914062 C 70.273438 5.015625 70.574219 6.390625 70.539062 7.851562 C 70.46875 9.21875 69.789062 10.378906 68.816406 11.308594 C 68.3125 11.722656 67.746094 12.074219 67.125 12.28125 C 68.796875 12.335938 68.796875 12.335938 70.503906 12.394531 C 70.503906 15.742188 70.503906 19.085938 70.503906 22.535156 C 64.890625 22.539062 64.890625 22.539062 62.542969 22.539062 C 60.921875 22.542969 59.300781 22.542969 57.675781 22.542969 C 56.496094 22.542969 55.3125 22.546875 54.132812 22.546875 C 53.507812 22.546875 52.878906 22.546875 52.253906 22.546875 C 51.667969 22.546875 51.078125 22.546875 50.488281 22.546875 C 50.273438 22.546875 50.054688 22.546875 49.839844 22.546875 C 49.546875 22.550781 49.25 22.550781 48.957031 22.546875 C 48.871094 22.550781 48.78125 22.550781 48.691406 22.550781 C 48.105469 22.546875 48.105469 22.546875 47.980469 22.421875 C 47.96875 22.097656 47.964844 21.78125 47.964844 21.457031 C 47.964844 21.359375 47.964844 21.257812 47.964844 21.15625 C 47.964844 20.949219 47.964844 20.738281 47.964844 20.527344 C 47.964844 20.210938 47.964844 19.894531 47.964844 19.578125 C 47.960938 15.410156 47.960938 15.410156 49.546875 13.746094 C 50.085938 13.25 50.570312 12.996094 51.246094 12.621094 C 49.683594 12.5625 49.683594 12.5625 48.09375 12.507812 C 48.007812 11.925781 47.964844 11.390625 47.964844 10.808594 C 47.964844 10.71875 47.964844 10.632812 47.964844 10.542969 C 47.964844 10.253906 47.964844 9.96875 47.964844 9.679688 C 47.964844 9.480469 47.964844 9.28125 47.964844 9.082031 C 47.964844 8.664062 47.964844 8.246094 47.964844 7.824219 C 47.964844 7.289062 47.964844 6.753906 47.964844 6.21875 C 47.964844 5.804688 47.964844 5.390625 47.964844 4.980469 C 47.964844 4.78125 47.964844 4.582031 47.964844 4.386719 C 47.964844 4.109375 47.964844 3.832031 47.964844 3.558594 C 47.964844 3.476562 47.964844 3.394531 47.964844 3.308594 C 47.964844 2.964844 47.980469 2.695312 48.09375 2.367188 Z M 48.09375 2.367188 "/>
<path style=" stroke:none;fill-rule:nonzero;fill:rgb(98.431373%,98.431373%,98.431373%);fill-opacity:1;" d="M 9.796875 2.367188 C 17.269531 2.367188 24.738281 2.367188 32.4375 2.367188 C 32.4375 4.78125 32.4375 7.199219 32.4375 9.691406 C 30.765625 9.726562 29.09375 9.765625 27.367188 9.804688 C 27.367188 9.914062 27.367188 10.027344 27.367188 10.140625 C 27.515625 10.136719 27.660156 10.132812 27.808594 10.128906 C 28.347656 10.113281 28.886719 10.101562 29.425781 10.085938 C 29.660156 10.082031 29.890625 10.074219 30.125 10.066406 C 30.460938 10.058594 30.796875 10.050781 31.128906 10.042969 C 31.234375 10.039062 31.339844 10.035156 31.449219 10.03125 C 31.542969 10.03125 31.640625 10.027344 31.742188 10.027344 C 31.828125 10.023438 31.914062 10.019531 32 10.019531 C 32.210938 10.027344 32.210938 10.027344 32.4375 10.140625 C 32.445312 11.078125 32.449219 12.011719 32.453125 12.949219 C 32.457031 13.382812 32.457031 13.820312 32.460938 14.253906 C 32.464844 14.671875 32.46875 15.09375 32.46875 15.511719 C 32.46875 15.671875 32.472656 15.832031 32.472656 15.992188 C 32.476562 16.214844 32.476562 16.441406 32.476562 16.664062 C 32.476562 16.855469 32.476562 16.855469 32.476562 17.050781 C 32.464844 17.152344 32.449219 17.25 32.4375 17.351562 C 32.058594 17.605469 31.804688 17.640625 31.359375 17.71875 C 30.007812 17.996094 29.117188 18.703125 28.316406 19.804688 C 27.785156 20.640625 27.605469 21.582031 27.367188 22.535156 C 21.570312 22.535156 15.773438 22.535156 9.796875 22.535156 C 9.632812 22.203125 9.671875 21.910156 9.671875 21.539062 C 9.671875 21.460938 9.671875 21.378906 9.671875 21.296875 C 9.671875 21.027344 9.671875 20.757812 9.671875 20.488281 C 9.671875 20.296875 9.671875 20.105469 9.671875 19.910156 C 9.671875 19.386719 9.671875 18.863281 9.671875 18.339844 C 9.671875 17.792969 9.671875 17.242188 9.671875 16.695312 C 9.671875 15.777344 9.671875 14.855469 9.671875 13.933594 C 9.671875 12.871094 9.671875 11.804688 9.671875 10.742188 C 9.671875 9.828125 9.671875 8.914062 9.671875 8 C 9.671875 7.457031 9.671875 6.910156 9.671875 6.363281 C 9.671875 5.851562 9.671875 5.335938 9.671875 4.824219 C 9.671875 4.636719 9.671875 4.445312 9.671875 4.257812 C 9.671875 4 9.671875 3.746094 9.671875 3.488281 C 9.671875 3.34375 9.671875 3.199219 9.671875 3.050781 C 9.6875 2.703125 9.6875 2.703125 9.796875 2.367188 Z M 9.796875 2.367188 "/>
<path style=" stroke:none;fill-rule:nonzero;fill:rgb(56.078434%,56.078434%,56.078434%);fill-opacity:1;" d="M 50.121094 13.410156 C 49.945312 13.839844 49.675781 14.113281 49.332031 14.421875 C 49.257812 14.421875 49.183594 14.421875 49.105469 14.421875 C 49.28125 13.996094 49.617188 13.410156 50.121094 13.410156 Z M 50.121094 13.410156 "/>
</g>
</svg>
