<?xml version="1.0" encoding="UTF-8"?>
<svg xmlns="http://www.w3.org/2000/svg" xmlns:xlink="http://www.w3.org/1999/xlink" width="100px" height="56px" viewBox="0 0 99 56" version="1.1">
<g id="surface1">
<path style=" stroke:none;fill-rule:nonzero;fill:rgb(0%,0%,0%);fill-opacity:1;" d="M 0 0 C 32.671875 0 65.339844 0 99 0 C 99 18.480469 99 36.960938 99 56 C 66.328125 56 33.660156 56 0 56 C 0 37.519531 0 19.039062 0 0 Z M 0 0 "/>
<path style=" stroke:none;fill-rule:nonzero;fill:rgb(99.607843%,99.607843%,99.607843%);fill-opacity:1;" d="M 90.304688 16.445312 C 90.351562 16.460938 90.394531 16.476562 90.441406 16.492188 C 91.085938 16.722656 91.707031 16.992188 92.246094 17.421875 C 92.289062 17.457031 92.335938 17.492188 92.382812 17.527344 C 93.714844 18.589844 94.703125 20.167969 94.941406 21.882812 C 94.984375 22.277344 94.984375 22.667969 94.988281 23.0625 C 94.988281 23.136719 94.988281 23.214844 94.988281 23.289062 C 94.988281 23.496094 94.988281 23.699219 94.988281 23.902344 C 94.988281 24.03125 94.988281 24.160156 94.988281 24.289062 C 94.988281 24.691406 94.992188 25.097656 94.992188 25.5 C 94.992188 25.960938 94.992188 26.425781 94.992188 26.890625 C 94.996094 27.25 94.996094 27.609375 94.996094 27.96875 C 94.996094 28.179688 94.996094 28.394531 94.996094 28.609375 C 94.996094 28.8125 94.996094 29.011719 94.996094 29.214844 C 94.996094 29.289062 94.996094 29.359375 94.996094 29.433594 C 95 29.945312 94.9375 30.40625 94.824219 30.902344 C 94.8125 30.953125 94.800781 31 94.789062 31.050781 C 94.515625 32.242188 93.894531 33.289062 93.070312 34.171875 C 93.027344 34.21875 92.984375 34.265625 92.941406 34.316406 C 92.320312 35.007812 91.46875 35.488281 90.59375 35.777344 C 90.558594 35.789062 90.527344 35.800781 90.488281 35.8125 C 89.980469 35.984375 89.480469 36.089844 88.945312 36.140625 C 89.007812 36.148438 89.066406 36.15625 89.128906 36.164062 C 90.652344 36.382812 91.867188 36.976562 92.96875 38.058594 C 93.011719 38.101562 93.011719 38.101562 93.054688 38.144531 C 93.277344 38.359375 93.457031 38.582031 93.632812 38.832031 C 93.65625 38.871094 93.683594 38.910156 93.710938 38.949219 C 94.535156 40.160156 94.976562 41.398438 94.976562 42.882812 C 85.125 42.882812 75.273438 42.882812 65.125 42.882812 C 65.125 34.085938 65.125 25.292969 65.125 16.230469 C 89.433594 16.132812 89.433594 16.132812 90.304688 16.445312 Z M 90.304688 16.445312 "/>
<path style=" stroke:none;fill-rule:nonzero;fill:rgb(99.607843%,99.607843%,99.607843%);fill-opacity:1;" d="M 33.824219 16.179688 C 39.691406 16.167969 39.691406 16.167969 42.144531 16.167969 C 42.671875 16.167969 43.199219 16.167969 43.722656 16.167969 C 43.792969 16.167969 43.867188 16.167969 43.9375 16.167969 C 45.070312 16.164062 46.207031 16.164062 47.339844 16.160156 C 48.542969 16.160156 49.742188 16.160156 50.941406 16.160156 C 51.660156 16.15625 52.378906 16.15625 53.097656 16.15625 C 53.589844 16.152344 54.085938 16.152344 54.578125 16.152344 C 54.863281 16.15625 55.144531 16.152344 55.429688 16.152344 C 58.046875 16.144531 58.046875 16.144531 59.089844 16.578125 C 59.136719 16.597656 59.179688 16.617188 59.226562 16.632812 C 60.125 17.007812 60.863281 17.582031 61.566406 18.25 C 61.601562 18.285156 61.640625 18.320312 61.679688 18.351562 C 62.46875 19.089844 62.921875 20.1875 63.214844 21.207031 C 63.226562 21.242188 63.234375 21.273438 63.246094 21.308594 C 63.519531 22.324219 63.488281 23.628906 63.164062 24.628906 C 63.152344 24.671875 63.136719 24.710938 63.125 24.753906 C 62.535156 26.535156 61.417969 27.949219 59.761719 28.828125 C 59.128906 29.144531 58.492188 29.324219 57.800781 29.453125 C 59.640625 29.46875 61.476562 29.484375 63.371094 29.503906 C 63.371094 33.917969 63.371094 38.332031 63.371094 42.882812 C 53.621094 42.882812 43.871094 42.882812 33.824219 42.882812 C 33.824219 33.519531 33.824219 33.519531 35.835938 31.421875 C 35.871094 31.386719 35.902344 31.347656 35.9375 31.308594 C 36.800781 30.386719 37.992188 29.90625 39.1875 29.605469 C 37.417969 29.589844 35.648438 29.574219 33.824219 29.554688 C 33.824219 25.140625 33.824219 20.726562 33.824219 16.179688 Z M 33.824219 16.179688 "/>
<path style=" stroke:none;fill-rule:nonzero;fill:rgb(99.607843%,99.607843%,99.607843%);fill-opacity:1;" d="M 2.992188 16.230469 C 12.808594 16.230469 22.625 16.230469 32.742188 16.230469 C 32.742188 19.378906 32.742188 22.527344 32.742188 25.769531 C 30.496094 25.769531 28.25 25.769531 25.9375 25.769531 C 25.9375 26.027344 25.9375 26.285156 25.9375 26.546875 C 28.183594 26.546875 30.429688 26.546875 32.742188 26.546875 C 32.742188 29.730469 32.742188 32.914062 32.742188 36.191406 C 32.367188 36.226562 31.992188 36.261719 31.609375 36.296875 C 30.429688 36.503906 29.367188 37.007812 28.460938 37.800781 C 28.414062 37.839844 28.363281 37.882812 28.3125 37.925781 C 26.84375 39.191406 26.304688 41.011719 26.140625 42.882812 C 18.503906 42.882812 10.863281 42.882812 2.992188 42.882812 C 2.992188 34.085938 2.992188 25.292969 2.992188 16.230469 Z M 2.992188 16.230469 "/>
</g>
</svg>
